<svg data-name="Grupo 474" xmlns="http://www.w3.org/2000/svg" width="49.932" height="45"><path data-name="Trazado 3249" d="M25.787 32.922a1.685 1.685 0 0 1-1.685-1.685V16.906a1.685 1.685 0 0 1 3.369 0v14.331a1.684 1.684 0 0 1-1.684 1.685Z"/><circle data-name="Elipse 57" cx="1.697" cy="1.697" r="1.697" transform="translate(24.053 34.776)"/><path data-name="Trazado 3250" d="M38.226 45H0L25.712 0l20.713 36.253a1.582 1.582 0 0 1-.57 2.149 1.548 1.548 0 0 1-2.126-.576L25.712 6.291 5.391 41.855h32.835a1.573 1.573 0 0 1 0 3.145Z"/><circle data-name="Elipse 58" cx="1.697" cy="1.697" r="1.697" transform="translate(46.538 41.415)" fill="#dd0034"/></svg>